<?xml version="1.0" encoding="UTF-8" standalone="no"?>
<!-- Created with Inkscape (http://www.inkscape.org/) -->

<svg
   width="512"
   height="512"
   viewBox="0 0 135.46666 135.46667"
   version="1.1"
   id="svg1"
   xml:space="preserve"
   inkscape:version="1.3 (0e150ed, 2023-07-21)"
   sodipodi:docname="logo.svg"
   xmlns:inkscape="http://www.inkscape.org/namespaces/inkscape"
   xmlns:sodipodi="http://sodipodi.sourceforge.net/DTD/sodipodi-0.dtd"
   xmlns:xlink="http://www.w3.org/1999/xlink"
   xmlns="http://www.w3.org/2000/svg"
   xmlns:svg="http://www.w3.org/2000/svg"><sodipodi:namedview
     id="namedview1"
     pagecolor="#ffffff"
     bordercolor="#000000"
     borderopacity="0.25"
     inkscape:showpageshadow="2"
     inkscape:pageopacity="0.0"
     inkscape:pagecheckerboard="0"
     inkscape:deskcolor="#d1d1d1"
     inkscape:document-units="mm"
     inkscape:zoom="0.71713664"
     inkscape:cx="85.060498"
     inkscape:cy="278.18966"
     inkscape:window-width="1920"
     inkscape:window-height="1011"
     inkscape:window-x="0"
     inkscape:window-y="0"
     inkscape:window-maximized="1"
     inkscape:current-layer="layer1" /><defs
     id="defs1"><linearGradient
       id="linearGradient3"
       inkscape:collect="always"><stop
         style="stop-color:#00a13a;stop-opacity:1;"
         offset="0"
         id="stop3" /><stop
         style="stop-color:#17ec27;stop-opacity:1;"
         offset="1"
         id="stop4" /></linearGradient><linearGradient
       inkscape:collect="always"
       xlink:href="#linearGradient3"
       id="linearGradient4"
       x1="86.206879"
       y1="139.06126"
       x2="184.57584"
       y2="40.328423"
       gradientUnits="userSpaceOnUse"
       gradientTransform="matrix(1.256,0,0,1.256,-76.943821,-37.74713)" /></defs><g
     inkscape:label="Layer 1"
     inkscape:groupmode="layer"
     id="layer1"><g
       inkscape:label="Layer 1"
       id="layer1-5"
       transform="matrix(1.1809646,0,0,1.1809646,-33.219526,-30.19958)"
       inkscape:export-filename="./layer1-5.png"
       inkscape:export-xdpi="96"
       inkscape:export-ydpi="96"><rect
         style="fill:url(#linearGradient4);fill-opacity:1;stroke-width:0.332316"
         id="rect1"
         width="114.70849"
         height="114.70849"
         x="28.129147"
         y="25.57196"
         ry="0" /><path
         style="fill:#ffffff;stroke-width:1.27834"
         d="m 117.32345,92.377712 c -0.6131,-0.40786 -0.55927,-0.47135 1.30559,-1.53996 3.44532,-1.97422 7.23639,-5.9573 9.53624,-10.01918 1.04452,-1.84477 0.50102,-2.06047 -0.75259,-0.29869 -1.80397,2.53521 -6.32867,6.34123 -9.16458,7.70891 -2.98201,1.43816 -3.57087,1.30039 -3.60942,-0.8444 -0.0353,-1.9645 0.9623,-4.12141 2.4159,-5.2234 0.68327,-0.518 3.27699,-1.61736 5.76386,-2.44304 2.48686,-0.82567 5.24085,-1.98673 6.11999,-2.58013 l 1.59841,-1.07891 -0.006,0.98291 c -0.028,4.19255 -1.67641,10.13096 -3.55212,12.79617 -2.36857,3.36544 -6.70052,4.50499 -9.65472,2.53972 z"
         id="path1"
         sodipodi:nodetypes="ssssssssscsss" /><path
         style="fill:#ffffff;stroke-width:1.11796"
         d="m 117.23993,83.461652 c -0.54168,-0.34598 -0.49615,-0.40286 1.10427,-1.37957 2.95676,-1.80448 6.17324,-5.38116 8.09089,-8.99693 0.87095,-1.642168 0.39377,-1.82071 -0.66077,-0.247239 -1.51748,2.264221 -5.37575,5.700139 -7.81478,6.959309 -2.56466,1.32403 -3.07972,1.21488 -3.15707,-0.66902 -0.0708,-1.72553 0.75291,-3.64102 1.99488,-4.638771 0.58379,-0.468981 2.81761,-1.487472 4.96408,-2.263295 2.14644,-0.775831 4.51842,-1.851773 5.27105,-2.390988 l 1.36843,-0.980372 0.0151,0.863823 c 0.0613,3.68465 -1.25135,8.936193 -2.82861,11.316093 -1.99166,3.00521 -5.73675,4.09415 -8.34673,2.42695 z"
         id="path1-4"
         sodipodi:nodetypes="ssssssssscsss" /><text
         xml:space="preserve"
         style="font-size:25.3563px;fill:#ffffff;fill-opacity:1;stroke-width:0.475429"
         x="39.768353"
         y="94.431915"
         id="text1"><tspan
           sodipodi:role="line"
           x="39.768353"
           y="94.431915"
           style="font-style:normal;font-variant:normal;font-weight:normal;font-stretch:normal;font-size:25.3563px;font-family:'Child\'s Play';-inkscape-font-specification:'Child\'s Play';fill:#ffffff;stroke-width:0.475429"
           id="tspan2">tim</tspan></text><text
         xml:space="preserve"
         style="font-style:normal;font-variant:normal;font-weight:normal;font-stretch:normal;font-size:57.172px;font-family:'Child\'s Play';-inkscape-font-specification:'Child\'s Play';fill:#ffffff;fill-opacity:1;stroke-width:1.07197"
         x="82.093025"
         y="105.40784"
         id="text3"><tspan
           sodipodi:role="line"
           id="tspan3"
           x="82.093025"
           y="105.40784"
           style="stroke-width:1.07197">a</tspan></text></g></g></svg>
